<?xml version="1.0" encoding="utf-8"?>
<!-- Generator: Adobe Illustrator 16.0.0, SVG Export Plug-In . SVG Version: 6.00 Build 0)  -->
<!DOCTYPE svg PUBLIC "-//W3C//DTD SVG 1.1//EN" "http://www.w3.org/Graphics/SVG/1.1/DTD/svg11.dtd">
<svg version="1.1" xmlns="http://www.w3.org/2000/svg" xmlns:xlink="http://www.w3.org/1999/xlink" x="0px" y="0px" width="726px"
	 height="260px" viewBox="0 0 726 260" enable-background="new 0 0 726 260" xml:space="preserve">
<g id="mur_exterieurs_1_" enable-background="new    ">
	<g id="mur_exterieurs">
		<g>
			<rect x="0.286" y="-0.23" fill="#FFFFFF" width="726.286" height="260.032"/>
		</g>
		<g>
			<rect x="0.286" y="-0.23" fill="none" stroke="#000000" stroke-miterlimit="10" width="726.286" height="260.032"/>
		</g>
	</g>
</g>
<g id="s_1_1_" enable-background="new    ">
	<g id="s_1">
		<g>
			<rect x="3.143" y="2.056" fill="#FFFFFF" width="30.857" height="49.721"/>
		</g>
		<g>
			<rect x="3.143" y="2.056" fill="none" stroke="#000000" stroke-miterlimit="10" width="30.857" height="49.721"/>
		</g>
	</g>
</g>
<g id="s_2_1_" enable-background="new    ">
	<g id="s_2">
		<g>
			<rect x="33.429" y="2.056" fill="#FFFFFF" width="29.714" height="49.721"/>
		</g>
		<g>
			<rect x="33.429" y="2.056" fill="none" stroke="#000000" stroke-miterlimit="10" width="29.714" height="49.721"/>
		</g>
	</g>
</g>
<g id="s_3_1_" enable-background="new    ">
	<g id="s_3">
		<g>
			<rect x="62.571" y="2.056" fill="#FFFFFF" width="29.714" height="49.721"/>
		</g>
		<g>
			<rect x="62.571" y="2.056" fill="none" stroke="#000000" stroke-miterlimit="10" width="29.714" height="49.721"/>
		</g>
	</g>
</g>
<g id="s_4_1_" enable-background="new    ">
	<g id="s_4">
		<g>
			<rect x="91.714" y="2.056" fill="#FFFFFF" width="29.714" height="49.721"/>
		</g>
		<g>
			<rect x="91.714" y="2.056" fill="none" stroke="#000000" stroke-miterlimit="10" width="29.714" height="49.721"/>
		</g>
	</g>
</g>
<g id="s_5_1_" enable-background="new    ">
	<g id="s_5">
		<g>
			<rect x="120.857" y="2.056" fill="#FFFFFF" width="29.143" height="49.721"/>
		</g>
		<g>
			<rect x="120.857" y="2.056" fill="none" stroke="#000000" stroke-miterlimit="10" width="29.143" height="49.721"/>
		</g>
	</g>
</g>
<g id="s_6_1_" enable-background="new    ">
	<g id="s_6">
		<g>
			<rect x="149.429" y="2.056" fill="#FFFFFF" width="29.714" height="49.721"/>
		</g>
		<g>
			<rect x="149.429" y="2.056" fill="none" stroke="#000000" stroke-miterlimit="10" width="29.714" height="49.721"/>
		</g>
	</g>
</g>
<g id="s_7_1_" enable-background="new    ">
	<g id="s_7">
		<g>
			<rect x="178.571" y="2.056" fill="#FFFFFF" width="29.714" height="49.721"/>
		</g>
		<g>
			<rect x="178.571" y="2.056" fill="none" stroke="#000000" stroke-miterlimit="10" width="29.714" height="49.721"/>
		</g>
	</g>
</g>
<g id="s_8_1_" enable-background="new    ">
	<g id="s_8">
		<g>
			<rect x="207.714" y="2.056" fill="#FFFFFF" width="29.714" height="49.721"/>
		</g>
		<g>
			<rect x="207.714" y="2.056" fill="none" stroke="#000000" stroke-miterlimit="10" width="29.714" height="49.721"/>
		</g>
	</g>
</g>
<g id="s_9_1_" enable-background="new    ">
	<g id="s_9">
		<g>
			<rect x="237.429" y="2.056" fill="#FFFFFF" width="29.143" height="49.721"/>
		</g>
		<g>
			<rect x="237.429" y="2.056" fill="none" stroke="#000000" stroke-miterlimit="10" width="29.143" height="49.721"/>
		</g>
	</g>
</g>
<g id="s_10_1_" enable-background="new    ">
	<g id="s_10">
		<g>
			<rect x="266" y="2.056" fill="#FFFFFF" width="29.714" height="49.721"/>
		</g>
		<g>
			<rect x="266" y="2.056" fill="none" stroke="#000000" stroke-miterlimit="10" width="29.714" height="49.721"/>
		</g>
	</g>
</g>
<g id="s_11_1_" enable-background="new    ">
	<g id="s_11">
		<g>
			<rect x="295.143" y="2.056" fill="#FFFFFF" width="29.714" height="49.721"/>
		</g>
		<g>
			<rect x="295.143" y="2.056" fill="none" stroke="#000000" stroke-miterlimit="10" width="29.714" height="49.721"/>
		</g>
	</g>
</g>
<g id="s_12_1_" enable-background="new    ">
	<g id="s_12">
		<g>
			<rect x="324.286" y="2.056" fill="#FFFFFF" width="29.714" height="49.721"/>
		</g>
		<g>
			<rect x="324.286" y="2.056" fill="none" stroke="#000000" stroke-miterlimit="10" width="29.714" height="49.721"/>
		</g>
	</g>
</g>
<g id="s_13_1_" enable-background="new    ">
	<g id="s_13">
		<g>
			<rect x="354" y="2.056" fill="#FFFFFF" width="37.715" height="61.15"/>
		</g>
		<g>
			<rect x="354" y="2.056" fill="none" stroke="#000000" stroke-miterlimit="10" width="37.715" height="61.15"/>
		</g>
	</g>
</g>
<g id="s_14_1_" enable-background="new    ">
	<g id="s_14">
		<g>
			<rect x="338" y="39.774" fill="#FFFFFF" width="40" height="23.432"/>
		</g>
		<g>
			<rect x="338" y="39.774" fill="none" stroke="#000000" stroke-miterlimit="10" width="40" height="23.432"/>
		</g>
	</g>
</g>
<g id="s_15_1_" enable-background="new    ">
	<g id="s_15">
		<g>
			<rect x="391.143" y="2.056" fill="#FFFFFF" width="30.857" height="61.15"/>
		</g>
		<g>
			<rect x="391.143" y="2.056" fill="none" stroke="#000000" stroke-miterlimit="10" width="30.857" height="61.15"/>
		</g>
	</g>
</g>
<g id="placard_elec_5_" enable-background="new    ">
	<g id="placard_elec">
		<g>
			<rect x="405.429" y="56.92" fill="#FFFFFF" width="16.571" height="6.857"/>
		</g>
		<g>
			<rect x="405.429" y="56.92" fill="none" stroke="#000000" stroke-miterlimit="10" width="16.571" height="6.857"/>
		</g>
	</g>
</g>
<g id="s_16_1_" enable-background="new    ">
	<g id="s_16">
		<g>
			<rect x="421.429" y="2.056" fill="#FFFFFF" width="30.856" height="61.722"/>
		</g>
		<g>
			<rect x="421.429" y="2.056" fill="none" stroke="#000000" stroke-miterlimit="10" width="30.856" height="61.722"/>
		</g>
	</g>
</g>
<g id="s_17_1_" enable-background="new    ">
	<g id="s_17">
		<g>
			<rect x="451.714" y="2.056" fill="#FFFFFF" width="37.144" height="61.722"/>
		</g>
		<g>
			<rect x="451.714" y="2.056" fill="none" stroke="#000000" stroke-miterlimit="10" width="37.144" height="61.722"/>
		</g>
	</g>
</g>
<g id="empty_15_" enable-background="new    ">
	<g id="empty">
		<g>
			<rect x="471.143" y="51.776" fill="#FFFFFF" width="24" height="16.002"/>
		</g>
	</g>
</g>
<g id="s_18_1_" enable-background="new    ">
	<g id="s_18">
		<g>
			<rect x="488.857" y="2.056" fill="#FFFFFF" width="30.285" height="49.721"/>
		</g>
		<g>
			<rect x="488.857" y="2.056" fill="none" stroke="#000000" stroke-miterlimit="10" width="30.285" height="49.721"/>
		</g>
	</g>
</g>
<g id="s_19_1_" enable-background="new    ">
	<g id="s_19">
		<g>
			<rect x="518.571" y="2.056" fill="#FFFFFF" width="29.143" height="49.721"/>
		</g>
		<g>
			<rect x="518.571" y="2.056" fill="none" stroke="#000000" stroke-miterlimit="10" width="29.143" height="49.721"/>
		</g>
	</g>
</g>
<g id="s_20_1_" enable-background="new    ">
	<g id="s_20">
		<g>
			<rect x="547.143" y="2.056" fill="#FFFFFF" width="29.715" height="49.721"/>
		</g>
		<g>
			<rect x="547.143" y="2.056" fill="none" stroke="#000000" stroke-miterlimit="10" width="29.715" height="49.721"/>
		</g>
	</g>
</g>
<g id="s_21_1_" enable-background="new    ">
	<g id="s_21">
		<g>
			<rect x="576.286" y="2.056" fill="#FFFFFF" width="29.714" height="49.721"/>
		</g>
		<g>
			<rect x="576.286" y="2.056" fill="none" stroke="#000000" stroke-miterlimit="10" width="29.714" height="49.721"/>
		</g>
	</g>
</g>
<g id="s_22_1_" enable-background="new    ">
	<g id="s_22">
		<g>
			<rect x="605.429" y="2.056" fill="#FFFFFF" width="29.714" height="49.721"/>
		</g>
		<g>
			<rect x="605.429" y="2.056" fill="none" stroke="#000000" stroke-miterlimit="10" width="29.714" height="49.721"/>
		</g>
	</g>
</g>
<g id="s_23_1_" enable-background="new    ">
	<g id="s_23">
		<g>
			<rect x="634.571" y="2.056" fill="#FFFFFF" width="29.714" height="49.721"/>
		</g>
		<g>
			<rect x="634.571" y="2.056" fill="none" stroke="#000000" stroke-miterlimit="10" width="29.714" height="49.721"/>
		</g>
	</g>
</g>
<g id="s_24_1_" enable-background="new    ">
	<g id="s_24">
		<g>
			<rect x="663.714" y="2.056" fill="#FFFFFF" width="60" height="49.721"/>
		</g>
		<g>
			<rect x="663.714" y="2.056" fill="none" stroke="#000000" stroke-miterlimit="10" width="60" height="49.721"/>
		</g>
	</g>
</g>
<g id="s_25_1_" enable-background="new    ">
	<g id="s_25">
		<g>
			<rect x="675.714" y="45.489" fill="#FFFFFF" width="48" height="33.147"/>
		</g>
		<g>
			<rect x="675.714" y="45.489" fill="none" stroke="#000000" stroke-miterlimit="10" width="48" height="33.147"/>
		</g>
	</g>
</g>
<g id="s_26_1_" enable-background="new    ">
	<g id="s_26">
		<g>
			<rect x="675.714" y="78.065" fill="#FFFFFF" width="48" height="32.575"/>
		</g>
		<g>
			<rect x="675.714" y="78.065" fill="none" stroke="#000000" stroke-miterlimit="10" width="48" height="32.575"/>
		</g>
	</g>
</g>
<g id="s_27_1_" enable-background="new    ">
	<g id="s_27">
		<g>
			<rect x="675.714" y="110.069" fill="#FFFFFF" width="48" height="39.434"/>
		</g>
		<g>
			<rect x="675.714" y="110.069" fill="none" stroke="#000000" stroke-miterlimit="10" width="48" height="39.434"/>
		</g>
	</g>
</g>
<g id="s_28_1_" enable-background="new    ">
	<g id="s_28">
		<g>
			<rect x="675.714" y="148.931" fill="#FFFFFF" width="48" height="38.862"/>
		</g>
		<g>
			<rect x="675.714" y="148.931" fill="none" stroke="#000000" stroke-miterlimit="10" width="48" height="38.862"/>
		</g>
	</g>
</g>
<g id="s_29_1_" enable-background="new    ">
	<g id="s_29">
		<g>
			<rect x="663.714" y="187.222" fill="#FFFFFF" width="60" height="69.723"/>
		</g>
		<g>
			<rect x="663.714" y="187.222" fill="none" stroke="#000000" stroke-miterlimit="10" width="60" height="69.723"/>
		</g>
	</g>
</g>
<g id="empty_14_" enable-background="new    ">
	<g id="empty_1_">
		<g>
			<rect x="662.571" y="186.65" fill="#FFFFFF" width="13.143" height="21.146"/>
		</g>
	</g>
</g>
<g id="s_30_1_" enable-background="new    ">
	<g id="s_30">
		<g>
			<rect x="635.143" y="207.796" fill="#FFFFFF" width="29.143" height="49.148"/>
		</g>
		<g>
			<rect x="635.143" y="207.796" fill="none" stroke="#000000" stroke-miterlimit="10" width="29.143" height="49.148"/>
		</g>
	</g>
</g>
<g id="s_31_1_" enable-background="new    ">
	<g id="s_31">
		<g>
			<rect x="606" y="207.796" fill="#FFFFFF" width="29.714" height="49.148"/>
		</g>
		<g>
			<rect x="606" y="207.796" fill="none" stroke="#000000" stroke-miterlimit="10" width="29.714" height="49.148"/>
		</g>
	</g>
</g>
<g id="s_32_1_" enable-background="new    ">
	<g id="s_32">
		<g>
			<rect x="576.857" y="207.796" fill="#FFFFFF" width="29.714" height="49.148"/>
		</g>
		<g>
			<rect x="576.857" y="207.796" fill="none" stroke="#000000" stroke-miterlimit="10" width="29.714" height="49.148"/>
		</g>
	</g>
</g>
<g id="s_33_1_" enable-background="new    ">
	<g id="s_33">
		<g>
			<rect x="547.714" y="207.796" fill="#FFFFFF" width="29.715" height="49.148"/>
		</g>
		<g>
			<rect x="547.714" y="207.796" fill="none" stroke="#000000" stroke-miterlimit="10" width="29.715" height="49.148"/>
		</g>
	</g>
</g>
<g id="s_34_1_" enable-background="new    ">
	<g id="s_34">
		<g>
			<rect x="518.571" y="207.796" fill="#FFFFFF" width="29.714" height="49.148"/>
		</g>
		<g>
			<rect x="518.571" y="207.796" fill="none" stroke="#000000" stroke-miterlimit="10" width="29.714" height="49.148"/>
		</g>
	</g>
</g>
<g id="s_35_1_" enable-background="new    ">
	<g id="s_35">
		<g>
			<rect x="488.857" y="207.796" fill="#FFFFFF" width="30.285" height="49.148"/>
		</g>
		<g>
			<rect x="488.857" y="207.796" fill="none" stroke="#000000" stroke-miterlimit="10" width="30.285" height="49.148"/>
		</g>
	</g>
</g>
<g id="s_36_1_" enable-background="new    ">
	<g id="s_36">
		<g>
			<rect x="451.714" y="196.365" fill="#FFFFFF" width="37.144" height="60.579"/>
		</g>
		<g>
			<rect x="451.714" y="196.365" fill="none" stroke="#000000" stroke-miterlimit="10" width="37.144" height="60.579"/>
		</g>
	</g>
</g>
<g id="empty_13_" enable-background="new    ">
	<g id="empty_2_">
		<g>
			<rect x="471.143" y="195.223" fill="#FFFFFF" width="18.857" height="12.573"/>
		</g>
	</g>
</g>
<g id="s_37_1_" enable-background="new    ">
	<g id="s_37">
		<g>
			<rect x="421.429" y="196.365" fill="#FFFFFF" width="30.856" height="60.579"/>
		</g>
		<g>
			<rect x="421.429" y="196.365" fill="none" stroke="#000000" stroke-miterlimit="10" width="30.856" height="60.579"/>
		</g>
	</g>
</g>
<g id="s_38_1_" enable-background="new    ">
	<g id="s_38">
		<g>
			<rect x="391.715" y="196.365" fill="#FFFFFF" width="30.285" height="60.579"/>
		</g>
		<g>
			<rect x="391.715" y="196.365" fill="none" stroke="#000000" stroke-miterlimit="10" width="30.285" height="60.579"/>
		</g>
	</g>
</g>
<g id="s_39_1_" enable-background="new    ">
	<g id="s_39">
		<g>
			<rect x="354" y="196.365" fill="#FFFFFF" width="37.715" height="60.579"/>
		</g>
		<g>
			<rect x="354" y="196.365" fill="none" stroke="#000000" stroke-miterlimit="10" width="37.715" height="60.579"/>
		</g>
	</g>
</g>
<g id="s_41_1_" enable-background="new    ">
	<g id="s_41">
		<g>
			<rect x="324.286" y="207.796" fill="#FFFFFF" width="29.714" height="49.148"/>
		</g>
		<g>
			<rect x="324.286" y="207.796" fill="none" stroke="#000000" stroke-miterlimit="10" width="29.714" height="49.148"/>
		</g>
	</g>
</g>
<g id="s_40_1_" enable-background="new    ">
	<g id="s_40">
		<g>
			<rect x="337.429" y="195.794" fill="#FFFFFF" width="40.571" height="24.574"/>
		</g>
		<g>
			<rect x="337.429" y="195.794" fill="none" stroke="#000000" stroke-miterlimit="10" width="40.571" height="24.574"/>
		</g>
	</g>
</g>
<g id="s_42_1_" enable-background="new    ">
	<g id="s_42">
		<g>
			<rect x="295.714" y="207.796" fill="#FFFFFF" width="29.143" height="49.148"/>
		</g>
		<g>
			<rect x="295.714" y="207.796" fill="none" stroke="#000000" stroke-miterlimit="10" width="29.143" height="49.148"/>
		</g>
	</g>
</g>
<g id="s_43_1_" enable-background="new    ">
	<g id="s_43">
		<g>
			<rect x="266.571" y="207.796" fill="#FFFFFF" width="29.714" height="49.148"/>
		</g>
		<g>
			<rect x="266.571" y="207.796" fill="none" stroke="#000000" stroke-miterlimit="10" width="29.714" height="49.148"/>
		</g>
	</g>
</g>
<g id="s_44_1_" enable-background="new    ">
	<g id="s_44">
		<g>
			<rect x="237.429" y="207.796" fill="#FFFFFF" width="29.714" height="49.148"/>
		</g>
		<g>
			<rect x="237.429" y="207.796" fill="none" stroke="#000000" stroke-miterlimit="10" width="29.714" height="49.148"/>
		</g>
	</g>
</g>
<g id="s_45_1_" enable-background="new    ">
	<g id="s_45">
		<g>
			<rect x="208.857" y="207.796" fill="#FFFFFF" width="28.572" height="49.148"/>
		</g>
		<g>
			<rect x="208.857" y="207.796" fill="none" stroke="#000000" stroke-miterlimit="10" width="28.572" height="49.148"/>
		</g>
	</g>
</g>
<g id="s_46_1_" enable-background="new    ">
	<g id="s_46">
		<g>
			<rect x="179.143" y="207.796" fill="#FFFFFF" width="30.286" height="49.148"/>
		</g>
		<g>
			<rect x="179.143" y="207.796" fill="none" stroke="#000000" stroke-miterlimit="10" width="30.286" height="49.148"/>
		</g>
	</g>
</g>
<g id="s_47_1_" enable-background="new    ">
	<g id="s_47">
		<g>
			<rect x="150" y="207.796" fill="#FFFFFF" width="29.714" height="49.148"/>
		</g>
		<g>
			<rect x="150" y="207.796" fill="none" stroke="#000000" stroke-miterlimit="10" width="29.714" height="49.148"/>
		</g>
	</g>
</g>
<g id="s_48_1_" enable-background="new    ">
	<g id="s_48">
		<g>
			<rect x="120.857" y="207.796" fill="#FFFFFF" width="29.714" height="49.148"/>
		</g>
		<g>
			<rect x="120.857" y="207.796" fill="none" stroke="#000000" stroke-miterlimit="10" width="29.714" height="49.148"/>
		</g>
	</g>
</g>
<g id="s_49_1_" enable-background="new    ">
	<g id="s_49">
		<g>
			<rect x="91.714" y="207.796" fill="#FFFFFF" width="29.714" height="49.148"/>
		</g>
		<g>
			<rect x="91.714" y="207.796" fill="none" stroke="#000000" stroke-miterlimit="10" width="29.714" height="49.148"/>
		</g>
	</g>
</g>
<g id="s_50_1_" enable-background="new    ">
	<g id="s_50">
		<g>
			<rect x="62.571" y="207.796" fill="#FFFFFF" width="29.714" height="49.148"/>
		</g>
		<g>
			<rect x="62.571" y="207.796" fill="none" stroke="#000000" stroke-miterlimit="10" width="29.714" height="49.148"/>
		</g>
	</g>
</g>
<g id="s_51_1_" enable-background="new    ">
	<g id="s_51">
		<g>
			<rect x="3.714" y="207.796" fill="#FFFFFF" width="59.428" height="49.148"/>
		</g>
		<g>
			<rect x="3.714" y="207.796" fill="none" stroke="#000000" stroke-miterlimit="10" width="59.428" height="49.148"/>
		</g>
	</g>
</g>
<g id="s_52_1_" enable-background="new    ">
	<g id="s_52">
		<g>
			<rect x="3.714" y="178.077" fill="#FFFFFF" width="38.857" height="30.29"/>
		</g>
		<g>
			<rect x="3.714" y="178.077" fill="none" stroke="#000000" stroke-miterlimit="10" width="38.857" height="30.29"/>
		</g>
	</g>
</g>
<g id="escalier_1_" enable-background="new    ">
	<g id="escalier">
		<g>
			<rect x="3.714" y="155.218" fill="#FFFFFF" width="51.429" height="22.859"/>
		</g>
		<g>
			<rect x="3.714" y="155.218" fill="none" stroke="#000000" stroke-miterlimit="10" width="51.429" height="22.859"/>
		</g>
	</g>
</g>
<g id="s_54_1_" enable-background="new    ">
	<g id="s_54">
		<g>
			<rect x="3.714" y="131.215" fill="#FFFFFF" width="51.429" height="24.003"/>
		</g>
		<g>
			<rect x="3.714" y="131.215" fill="none" stroke="#000000" stroke-miterlimit="10" width="51.429" height="24.003"/>
		</g>
	</g>
</g>
<g id="couloir_tech_1_" enable-background="new    ">
	<g id="couloir_tech">
		<g>
			<rect x="3.714" y="71.778" fill="#FFFFFF" width="10.286" height="66.294"/>
		</g>
		<g>
			<rect x="3.714" y="71.778" fill="none" stroke="#000000" stroke-miterlimit="10" width="10.286" height="66.294"/>
		</g>
	</g>
</g>
<g id="s_55_1_" enable-background="new    ">
	<g id="s_55">
		<g>
			<rect x="13.429" y="106.068" fill="#FFFFFF" width="41.714" height="25.718"/>
		</g>
		<g>
			<rect x="13.429" y="106.068" fill="none" stroke="#000000" stroke-miterlimit="10" width="41.714" height="25.718"/>
		</g>
	</g>
</g>
<g id="s_57_1_" enable-background="new    ">
	<g id="s_57">
		<g>
			<rect x="71.714" y="71.778" fill="#FFFFFF" width="48" height="29.146"/>
		</g>
		<g>
			<rect x="71.714" y="71.778" fill="none" stroke="#000000" stroke-miterlimit="10" width="48" height="29.146"/>
		</g>
	</g>
</g>
<g id="s_56_1_" enable-background="new    ">
	<g id="s_56">
		<g>
			<rect x="13.429" y="71.778" fill="#FFFFFF" width="41.714" height="34.861"/>
		</g>
		<g>
			<rect x="13.429" y="71.778" fill="none" stroke="#000000" stroke-miterlimit="10" width="41.714" height="34.861"/>
		</g>
	</g>
</g>
<g id="vide_sur_lvl2_1_" enable-background="new    ">
	<g id="vide_sur_lvl2">
		<g>
			<polygon fill="#FFFFFF" points="441.005,81.229 400.836,81.083 372.328,109.388 372.184,149.563 400.484,178.073 
				440.654,178.219 469.161,149.913 469.307,109.739 			"/>
		</g>
		<g>
			<polygon fill="none" stroke="#000000" stroke-miterlimit="10" points="441.005,81.229 400.836,81.083 372.328,109.388 
				372.184,149.563 400.484,178.073 440.654,178.219 469.161,149.913 469.307,109.739 			"/>
		</g>
	</g>
</g>
<g id="vitre_exterieure_1_" enable-background="new    ">
	<g id="vitre_exterieure">
		<g>
			<rect x="119.714" y="80.351" fill="#FFFFFF" width="150.286" height="98.299"/>
		</g>
		<g>
			<rect x="119.714" y="80.351" fill="none" stroke="#000000" stroke-miterlimit="10" width="150.286" height="98.299"/>
		</g>
	</g>
</g>
<g id="s_58_1_" enable-background="new    ">
	<g id="s_58">
		<g>
			<rect x="71.714" y="100.354" fill="#FFFFFF" width="48" height="29.718"/>
		</g>
		<g>
			<rect x="71.714" y="100.354" fill="none" stroke="#000000" stroke-miterlimit="10" width="48" height="29.718"/>
		</g>
	</g>
</g>
<g id="s_59_1_" enable-background="new    ">
	<g id="s_59">
		<g>
			<rect x="71.714" y="129.5" fill="#FFFFFF" width="48" height="29.718"/>
		</g>
		<g>
			<rect x="71.714" y="129.5" fill="none" stroke="#000000" stroke-miterlimit="10" width="48" height="29.718"/>
		</g>
	</g>
</g>
<g id="placard_elec_4_" enable-background="new    ">
	<g id="placard_elec_1_">
		<g>
			<rect x="71.143" y="142.073" fill="#FFFFFF" width="6.857" height="16.573"/>
		</g>
		<g>
			<rect x="71.143" y="142.073" fill="none" stroke="#000000" stroke-miterlimit="10" width="6.857" height="16.573"/>
		</g>
	</g>
</g>
<g id="s_60_1_" enable-background="new    ">
	<g id="s_60">
		<g>
			<rect x="71.714" y="158.646" fill="#FFFFFF" width="48" height="29.146"/>
		</g>
		<g>
			<rect x="71.714" y="158.646" fill="none" stroke="#000000" stroke-miterlimit="10" width="48" height="29.146"/>
		</g>
	</g>
</g>
<g id="s_63_1_" enable-background="new    ">
	<g id="s_63">
		<g>
			<rect x="592.857" y="68.35" fill="#FFFFFF" width="69.714" height="122.872"/>
		</g>
		<g>
			<rect x="592.857" y="68.35" fill="none" stroke="#000000" stroke-miterlimit="10" width="69.714" height="122.872"/>
		</g>
	</g>
</g>
<g id="empty_12_" enable-background="new    ">
	<g id="empty_3_">
		<g>
			<rect x="646" y="181.507" fill="#FFFFFF" width="17.714" height="10.287"/>
		</g>
	</g>
</g>
<g id="empty_11_" enable-background="new    ">
	<g id="empty_4_">
		<g>
			<rect x="646" y="66.635" fill="#FFFFFF" width="17.714" height="11.431"/>
		</g>
	</g>
</g>
<g id="empty_10_" enable-background="new    ">
	<g id="empty_5_">
		<g>
			<rect x="588.857" y="180.935" fill="#FFFFFF" width="5.143" height="9.716"/>
		</g>
	</g>
</g>
<g id="empty_9_" enable-background="new    ">
	<g id="empty_6_">
		<g>
			<rect x="590.571" y="68.921" fill="#FFFFFF" width="4" height="9.716"/>
		</g>
	</g>
</g>
<g id="empty_8_" enable-background="new    ">
	<g id="empty_7_">
		<g>
			<rect x="592.286" y="97.496" fill="#FFFFFF" width="1.714" height="64.008"/>
		</g>
	</g>
</g>
<g id="placard_elec_3_" enable-background="new    ">
	<g id="placard_elec_2_">
		<g>
			<rect x="507.714" y="68.35" fill="#FFFFFF" width="6.286" height="32.004"/>
		</g>
		<g>
			<rect x="507.714" y="68.35" fill="none" stroke="#000000" stroke-miterlimit="10" width="6.286" height="32.004"/>
		</g>
	</g>
</g>
<g id="vide_3_" enable-background="new    ">
	<g id="vide">
		<g>
			<path fill="#FFFFFF" d="M594.571,180.363h-1.143v-17.717v-0.571h-4.571h-0.572v28.575v0.571h0.572h5.714h0.571v-0.571v-9.716
				v-0.571H594.571z M594.571,190.65h-5.714v-28.004h4v17.717v0.571h0.571h1.143V190.65z"/>
		</g>
		<g>
			<path fill="none" stroke="#000000" stroke-miterlimit="10" d="M594.571,180.363h-1.143v-17.717v-0.571h-4.571h-0.572v28.575
				v0.571h0.572h5.714h0.571v-0.571v-9.716v-0.571H594.571z M594.571,190.65h-5.714v-28.004h4v17.717v0.571h0.571h1.143V190.65z"/>
		</g>
	</g>
</g>
<g id="vide_2_" enable-background="new    ">
	<g id="vide_1_">
		<g>
			<path fill="#FFFFFF" d="M595.143,68.35h-6.857h-0.571v28.575h0.571h4h0.572v-0.572V79.208h2.285h0.571v-0.571v-9.716V68.35
				H595.143z M595.143,78.637h-2.857v0.571v17.145h-4V68.921h6.857V78.637z"/>
		</g>
		<g>
			<path fill="none" stroke="#000000" stroke-miterlimit="10" d="M595.143,68.35h-6.857h-0.571v28.575h0.571h4h0.572v-0.572V79.208
				h2.285h0.571v-0.571v-9.716V68.35H595.143z M595.143,78.637h-2.857v0.571v17.145h-4V68.921h6.857V78.637z"/>
		</g>
	</g>
</g>
<g id="maintenance_1_" enable-background="new    ">
	<g id="maintenance">
		<g>
			<path fill="#FFFFFF" d="M595.429,97.498l-0.286-0.002v-0.571h-6.857V68.921V68.35h-17.714H570v0.571v50.292v0.571h0.571h6.286
				v41.72v0.571h0.571h17.086l0.343,0.003L595.429,97.498z M576.857,119.213h-6.286V68.921h17.143v28.575h0.571h6.572l-0.566,64.008
				h-16.862v-42.291H576.857z"/>
		</g>
		<g>
			<path fill="none" stroke="#000000" stroke-miterlimit="10" d="M595.429,97.498l-0.286-0.002v-0.571h-6.857V68.921V68.35h-17.714
				H570v0.571v50.292v0.571h0.571h6.286v41.72v0.571h0.571h17.086l0.343,0.003L595.429,97.498z M576.857,119.213h-6.286V68.921
				h17.143v28.575h0.571h6.572l-0.566,64.008h-16.862v-42.291H576.857z"/>
		</g>
	</g>
</g>
<g id="s_65_1_" enable-background="new    ">
	<g id="s_65">
		<g>
			<rect x="514" y="68.35" fill="#FFFFFF" width="56" height="51.435"/>
		</g>
		<g>
			<rect x="514" y="68.35" fill="none" stroke="#000000" stroke-miterlimit="10" width="56" height="51.435"/>
		</g>
	</g>
</g>
<g id="ascenseur_1_" enable-background="new    ">
	<g id="ascenseur">
		<g>
			<rect x="508.286" y="100.354" fill="#FFFFFF" width="22.285" height="19.431"/>
		</g>
		<g>
			<rect x="508.286" y="100.354" fill="none" stroke="#000000" stroke-miterlimit="10" width="22.285" height="19.431"/>
		</g>
	</g>
</g>
<g id="s_66_1_" enable-background="new    ">
	<g id="s_66">
		<g>
			<rect x="508.286" y="162.075" fill="#FFFFFF" width="17.714" height="29.146"/>
		</g>
		<g>
			<rect x="508.286" y="162.075" fill="none" stroke="#000000" stroke-miterlimit="10" width="17.714" height="29.146"/>
		</g>
	</g>
</g>
<g id="s_67_1_" enable-background="new    ">
	<g id="s_67">
		<g>
			<rect x="525.429" y="162.075" fill="#FFFFFF" width="45.714" height="29.146"/>
		</g>
		<g>
			<rect x="525.429" y="162.075" fill="none" stroke="#000000" stroke-miterlimit="10" width="45.714" height="29.146"/>
		</g>
	</g>
</g>
<g id="s_68_1_" enable-background="new    ">
	<g id="s_68">
		<g>
			<rect x="570.571" y="162.075" fill="#FFFFFF" width="18.286" height="29.146"/>
		</g>
		<g>
			<rect x="570.571" y="162.075" fill="none" stroke="#000000" stroke-miterlimit="10" width="18.286" height="29.146"/>
		</g>
	</g>
</g>
<g id="s_69_1_" enable-background="new    ">
	<g id="s_69">
		<g>
			<rect x="508.286" y="119.784" fill="#FFFFFF" width="68.571" height="42.291"/>
		</g>
		<g>
			<rect x="508.286" y="119.784" fill="none" stroke="#000000" stroke-miterlimit="10" width="68.571" height="42.291"/>
		</g>
	</g>
</g>
<g id="Forme_2_1_" enable-background="new    ">
	<g id="Forme_2">
		<g>
			<polygon fill="#FFFFFF" points="646,180.935 645.429,180.935 645.429,191.222 646,191.222 646,181.507 662.571,181.507 
				662.571,180.935 			"/>
		</g>
		<g>
			<polygon fill="none" stroke="#000000" stroke-miterlimit="10" points="646,180.935 645.429,180.935 645.429,191.222 646,191.222 
				646,181.507 662.571,181.507 662.571,180.935 			"/>
		</g>
	</g>
</g>
<g id="Forme_4_1_" enable-background="new    ">
	<g id="Forme_4">
		<g>
			<polygon fill="#FFFFFF" points="646,78.065 646,68.35 645.429,68.35 645.429,78.065 645.429,78.637 646,78.637 662.571,78.637 
				662.571,78.065 			"/>
		</g>
		<g>
			<polygon fill="none" stroke="#000000" stroke-miterlimit="10" points="646,78.065 646,68.35 645.429,68.35 645.429,78.065 
				645.429,78.637 646,78.637 662.571,78.637 662.571,78.065 			"/>
		</g>
	</g>
</g>
<g id="Forme_6_1_" enable-background="new    ">
	<g id="Forme_6">
		<g>
			<polygon fill="#FFFFFF" points="675.714,187.793 675.714,207.796 664.286,207.796 664.286,208.367 676.285,208.367 
				676.285,187.793 			"/>
		</g>
		<g>
			<polygon fill="none" stroke="#000000" stroke-miterlimit="10" points="675.714,187.793 675.714,207.796 664.286,207.796 
				664.286,208.367 676.285,208.367 676.285,187.793 			"/>
		</g>
	</g>
</g>
<g id="Forme_8_1_" enable-background="new    ">
	<g id="Forme_8">
		<g>
			<polygon fill="#FFFFFF" points="471.143,207.796 471.143,196.937 470.571,196.937 470.571,208.367 471.143,208.367 
				488.286,208.367 488.286,207.796 			"/>
		</g>
		<g>
			<polygon fill="none" stroke="#000000" stroke-miterlimit="10" points="471.143,207.796 471.143,196.937 470.571,196.937 
				470.571,208.367 471.143,208.367 488.286,208.367 488.286,207.796 			"/>
		</g>
	</g>
</g>
<g id="Forme_10_1_" enable-background="new    ">
	<g id="Forme_10">
		<g>
			<polygon fill="#FFFFFF" points="470.571,51.204 470.571,51.776 470.571,63.206 471.143,63.206 471.143,51.776 488.286,51.776 
				488.286,51.204 			"/>
		</g>
		<g>
			<polygon fill="none" stroke="#000000" stroke-miterlimit="10" points="470.571,51.204 470.571,51.776 470.571,63.206 
				471.143,63.206 471.143,51.776 488.286,51.776 488.286,51.204 			"/>
		</g>
	</g>
</g>
</svg>
